<svg xmlns="http://www.w3.org/2000/svg" viewBox="0 0 512 512"><title>Radio</title><g id="Radio"><g id="Radio-2" data-name="Radio"><path d="M344.3522,208.0479H192.9456L316.54,137.8327,309.56,125.5582,163.9121,208.314a28.9671,28.9671,0,0,0-25.2493,28.71V357.4668a28.9844,28.9844,0,0,0,28.98,28.975H344.3522a28.9822,28.9822,0,0,0,28.985-28.975V237.0239A28.98,28.98,0,0,0,344.3522,208.0479ZM223.6785,241.96a55.12,55.12,0,0,1,43.2281,20.8978H180.4393A55.1493,55.1493,0,0,1,223.6785,241.96Zm0,110.56a55.1458,55.1458,0,0,1-43.2392-20.8938h86.4673A55.1238,55.1238,0,0,1,223.6785,352.5205Zm51.3888-35.0048H172.2886a54.9,54.9,0,0,1-3.3858-13.2149H278.4583A55.4476,55.4476,0,0,1,275.0673,317.5157ZM168.9028,290.1848a54.6992,54.6992,0,0,1,3.3858-13.2108H275.0673a55.0135,55.0135,0,0,1,3.391,13.2108Zm173.132,6.8756H313.05v-14.111h28.985Zm0-32.5977H313.05V250.3466h28.985Z"/></g></g></svg>