<svg xmlns="http://www.w3.org/2000/svg" viewBox="0 0 250 74">
<style type="text/css">
.st0{fill:#FFFFFF;}
</style>
<path class="st0" d="M237.75,0H12.25C5.48,0,0,5.48,0,12.23v49.53C0,68.52,5.48,74,12.25,74h225.51c6.76,0,12.25-5.48,12.25-12.23
	V12.23C250,5.48,244.52,0,237.75,0z M248.38,61.77c0,5.85-4.77,10.62-10.63,10.62H12.25c-5.86,0-10.63-4.76-10.63-10.62V12.23
	c0-5.85,4.77-10.62,10.63-10.62h225.51c5.86,0,10.63,4.76,10.63,10.62V61.77z M102.58,23.99v-9.7h3.09v-1.73h-7.98v1.73h3.09v9.7
	H102.58z M132.15,24.23c1.66,0,3.07-0.58,4.19-1.73c1.12-1.15,1.68-2.57,1.68-4.23c0-1.65-0.57-3.07-1.69-4.22
	c-1.12-1.15-2.53-1.74-4.18-1.74c-1.66,0-3.07,0.58-4.19,1.73c-1.12,1.15-1.68,2.57-1.68,4.23s0.57,3.08,1.68,4.23
	C129.07,23.65,130.49,24.23,132.15,24.23z M129.27,15.23c0.78-0.79,1.75-1.19,2.88-1.19c1.13,0,2.1,0.4,2.88,1.19
	c0.78,0.79,1.18,1.81,1.18,3.04c0,1.23-0.4,2.25-1.18,3.04c-0.78,0.79-1.75,1.19-2.88,1.19c-1.13,0-2.1-0.4-2.88-1.19
	c-0.78-0.79-1.18-1.81-1.18-3.04C128.1,17.04,128.49,16.02,129.27,15.23z M88.38,42.76v3.33h7.98c-0.24,1.87-0.86,3.24-1.82,4.19
	c-1.16,1.16-2.98,2.44-6.16,2.44c-4.91,0-8.75-3.95-8.75-8.86S83.47,35,88.38,35c2.65,0,4.58,1.04,6.01,2.38l2.35-2.35
	c-1.99-1.9-4.64-3.36-8.36-3.36C81.66,31.67,76,37.14,76,43.86c0,6.72,5.66,12.19,12.38,12.19c3.63,0,6.37-1.19,8.51-3.42
	c2.2-2.2,2.89-5.29,2.89-7.79c0-0.77-0.06-1.49-0.18-2.08H88.38z M82.45,24.23c1.71,0,3.13-0.57,4.2-1.69
	c0.95-0.95,1.43-2.23,1.43-3.82c0-0.28-0.03-0.57-0.08-0.87l-0.03-0.15h-5.7v1.7h4c-0.1,0.81-0.39,1.46-0.85,1.92
	c-0.78,0.78-1.78,1.18-2.96,1.18c-1.11,0-2.08-0.4-2.9-1.18c-0.81-0.78-1.22-1.81-1.22-3.06c0-1.25,0.41-2.28,1.22-3.06
	c0.81-0.78,1.78-1.18,2.9-1.18c1.24,0,2.19,0.41,2.89,1.25l0.13,0.15l1.23-1.23l-0.11-0.13c-0.45-0.53-1.05-0.97-1.8-1.29
	c-0.74-0.32-1.53-0.48-2.34-0.48c-1.64,0-3.06,0.58-4.2,1.71c-1.15,1.14-1.73,2.57-1.73,4.25c0,1.68,0.58,3.11,1.73,4.25
	C79.39,23.66,80.81,24.23,82.45,24.23z M112.59,12.56h-1.79v11.43h1.79V12.56z M96.58,22.26h-5.04v-3.14h4.55v-1.7h-4.55v-3.14h5.04
	v-1.73h-6.83v11.43h6.83V22.26z M141.44,16.91l-0.04-1.55l5.33,8.54l0.05,0.09h1.77V12.56h-1.79v6.66l0.04,1.55l-5.14-8.21h-2.02
	v11.43h1.79V16.91z M118.9,23.99v-9.7h3.09v-1.73h-7.98v1.73h3.09v9.7H118.9z M108.85,40.36c-4.35,0-7.89,3.3-7.89,7.85
	c0,4.52,3.54,7.85,7.89,7.85c4.35,0,7.89-3.33,7.89-7.85C116.74,43.66,113.2,40.36,108.85,40.36z M108.85,52.96
	c-2.38,0-4.43-1.96-4.43-4.76c0-2.82,2.05-4.76,4.43-4.76c2.38,0,4.43,1.93,4.43,4.76C113.29,51,111.23,52.96,108.85,52.96z
	 M188.26,32.51H180v23.07h3.45v-8.74h4.81c3.82,0,7.58-2.76,7.58-7.17C195.84,35.27,192.08,32.51,188.26,32.51z M188.35,43.63h-4.9
	v-7.91h4.9c2.58,0,4.04,2.13,4.04,3.95C192.39,41.46,190.93,43.63,188.35,43.63z M172.09,45.35c-0.65-1.75-2.65-5-6.73-5
	c-4.05,0-7.41,3.18-7.41,7.85c0,4.4,3.33,7.85,7.8,7.85c3.6,0,5.68-2.2,6.55-3.48l-2.68-1.78c-0.89,1.31-2.11,2.17-3.87,2.17
	c-1.76,0-3.01-0.8-3.81-2.38l10.51-4.34L172.09,45.35z M161.38,47.97c-0.09-3.03,2.35-4.58,4.11-4.58c1.37,0,2.53,0.68,2.92,1.67
	L161.38,47.97z M224.84,50.82h-0.12l-4.1-10h-3.71l6.15,13.98l-3.51,7.78h3.6l9.48-21.76h-3.83L224.84,50.82z M209.66,40.31
	c-2.5,0-5.08,1.1-6.15,3.53l3.06,1.28c0.65-1.28,1.87-1.69,3.15-1.69c1.78,0,3.6,1.07,3.63,2.97v0.24c-0.62-0.36-1.96-0.89-3.6-0.89
	c-3.3,0-6.66,1.81-6.66,5.19c0,3.09,2.7,5.08,5.73,5.08c2.32,0,3.6-1.04,4.4-2.26h0.12v1.78h3.33V46.7
	C216.67,42.6,213.61,40.31,209.66,40.31z M209.24,52.96c-1.13,0-2.7-0.56-2.7-1.96c0-1.78,1.96-2.46,3.65-2.46
	c1.52,0,2.23,0.33,3.15,0.77C213.07,51.44,211.23,52.96,209.24,52.96z M152.83,55.58h3.45V32.51h-3.45V55.58z M197.74,55.58h3.45
	V32.51h-3.45V55.58z M126.06,40.36c-4.35,0-7.89,3.3-7.89,7.85c0,4.52,3.54,7.85,7.89,7.85c4.35,0,7.89-3.33,7.89-7.85
	C133.95,43.66,130.4,40.36,126.06,40.36z M126.06,52.96c-2.38,0-4.43-1.96-4.43-4.76c0-2.82,2.05-4.76,4.43-4.76
	c2.38,0,4.43,1.93,4.43,4.76C130.49,51,128.44,52.96,126.06,52.96z M147.18,42.11h-0.12c-0.77-0.92-2.26-1.75-4.14-1.75
	c-3.93,0-7.53,3.45-7.53,7.88c0,4.4,3.6,7.82,7.53,7.82c1.88,0,3.36-0.83,4.14-1.78h0.12v1.13c0,3-1.61,4.61-4.2,4.61
	c-2.11,0-3.42-1.52-3.96-2.8l-3.01,1.25c0.86,2.08,3.15,4.64,6.96,4.64c4.05,0,7.47-2.38,7.47-8.18V40.83h-3.27V42.11z
	 M143.22,52.96c-2.38,0-4.38-1.99-4.38-4.73c0-2.77,1.99-4.79,4.38-4.79c2.35,0,4.2,2.02,4.2,4.79
	C147.42,50.97,145.57,52.96,143.22,52.96z M18.86,14.62c-0.25,0.51-0.4,1.16-0.4,1.92v40.91c0,0.76,0.14,1.4,0.4,1.92L41.26,37
	L18.86,14.62z M49.5,28.77L23.17,13.83c-1.23-0.7-2.35-0.79-3.19-0.37l22.42,22.4L49.5,28.77z M19.98,60.54
	c0.84,0.41,1.96,0.33,3.19-0.37L49.5,45.23l-7.09-7.09L19.98,60.54z M59.29,34.33l-8.33-4.73L43.55,37l7.41,7.4l8.33-4.73
	C61.87,38.2,61.87,35.8,59.29,34.33z"/>
</svg>