<svg xmlns="http://www.w3.org/2000/svg" viewBox="0 0 220 74">
<style type="text/css">
.st0{fill:#FFFFFF;}
</style>
<path class="st0" d="M207.84,0H12.16C5.44,0,0,5.48,0,12.23v49.53C0,68.52,5.44,74,12.16,74h195.68c6.71,0,12.16-5.48,12.16-12.23
	V12.23C220,5.48,214.56,0,207.84,0z M218.39,61.77c0,5.85-4.73,10.62-10.55,10.62H12.16c-5.82,0-10.55-4.76-10.55-10.62V12.23
	c0-5.85,4.73-10.62,10.55-10.62h195.68c5.82,0,10.55,4.76,10.55,10.62V61.77z M74.7,21.64c0.04-0.32,0.05-0.64,0.03-0.96
	c-0.19-2.69-2.51-4.71-5.19-4.52h-3.96v11.04h3.96C72.81,27.19,74.7,25.16,74.7,21.64z M67.28,25.63v-7.92h2.07
	c0.22-0.01,0.44,0,0.66,0.03c1.89,0.26,3.22,2.02,2.96,3.92C73,21.9,73.01,22.13,73,22.37c-0.11,1.91-1.75,3.37-3.65,3.26H67.28z
	 M45.96,36.8c0.04-3.26,1.74-6.28,4.51-7.99c-1.75-2.52-4.58-4.05-7.63-4.15c-3.21-0.34-6.32,1.93-7.96,1.93
	c-1.67,0-4.19-1.9-6.9-1.84c-3.57,0.12-6.82,2.11-8.55,5.25c-3.7,6.44-0.94,15.91,2.6,21.12c1.77,2.55,3.84,5.4,6.55,5.3
	c2.65-0.11,3.64-1.7,6.84-1.7c3.17,0,4.1,1.7,6.87,1.64c2.85-0.05,4.64-2.56,6.35-5.13c1.27-1.82,2.25-3.82,2.9-5.95
	C48.16,43.82,45.96,40.49,45.96,36.8z M40.73,21.23c1.55-1.87,2.32-4.28,2.13-6.72c-2.37,0.25-4.56,1.39-6.13,3.19
	c-1.55,1.78-2.34,4.1-2.19,6.47C36.95,24.2,39.23,23.12,40.73,21.23z M71.54,33.44l-8.24,22.97h3.69l2.09-6.21h8.7l2.09,6.21h3.75
	l-8.24-22.97H71.54z M69.97,47.34l3.4-10.08h0.1l3.4,10.08H69.97z M189.01,27.35c1.62,0.18,3.13-0.84,3.59-2.41l-1.57,0
	c-0.39,0.71-1.17,1.11-1.97,1.01c-0.07,0-0.14,0-0.21-0.01c-1.2-0.1-2.1-1.17-2-2.38v-0.09h5.85V22.9c0-2.62-1.39-4.2-3.69-4.2
	c-0.18,0-0.36,0.01-0.54,0.03c-2.09,0.28-3.56,2.22-3.28,4.32c-0.03,0.2-0.04,0.41-0.03,0.62
	C185.21,25.76,186.94,27.41,189.01,27.35z M189,20.1c0.06,0,0.13,0,0.19,0.01c1.1,0.08,1.93,1.05,1.84,2.15h-4.18
	c0-0.02,0-0.04,0-0.05C186.87,21.03,187.83,20.08,189,20.1z M170.29,24.99c0,1.61,0.72,2.25,2.54,2.25c0.3,0,0.6-0.03,0.89-0.08
	v-1.37c-0.21,0.02-0.41,0.04-0.62,0.04c-0.81,0-1.17-0.38-1.17-1.25v-4.28h1.79V18.9h-1.79v-2.11h-1.64v2.11h-1.31v1.38h1.31V24.99z
	 M134.61,27.33c1.07,0.04,2.07-0.52,2.6-1.45h0.13v1.32h1.57V15.61h-1.63v4.58h-0.12c-0.49-0.94-1.48-1.51-2.54-1.46
	c-2.09,0-3.44,1.67-3.44,4.3C131.17,25.66,132.5,27.33,134.61,27.33z M135.07,20.2c1.37,0,2.23,1.09,2.23,2.83
	c0,1.74-0.85,2.82-2.23,2.82c-1.38,0-2.21-1.06-2.21-2.83h0C132.86,21.27,133.7,20.2,135.07,20.2z M193.79,39.46
	c-4.68,0-7.7,3.41-7.7,8.66c0,5.24,3.01,8.5,7.85,8.5c3.76,0,6.71-2.09,7.17-5.13h-3.24c-0.62,1.55-2.19,2.51-3.84,2.36
	c-0.18,0.01-0.36,0-0.54-0.01c-2.38-0.21-4.15-2.33-3.94-4.73V48.9h11.76v-1.18C201.29,42.65,198.39,39.46,193.79,39.46z
	 M197.87,46.5h-8.32c0-0.01,0-0.02,0-0.04c0.01-2.34,1.91-4.23,4.24-4.21c0.1,0,0.21,0,0.31,0.01
	C196.3,42.38,197.99,44.28,197.87,46.5z M180.17,42.52h-0.08v-2.85h-3.26l0,16.75h3.42v-9.93c-0.02-0.18-0.03-0.35-0.02-0.53
	c0.08-1.91,1.68-3.4,3.58-3.32c0.52-0.02,1.04,0.05,1.54,0.21v-3.22c-0.38-0.09-0.78-0.13-1.17-0.13
	C182.3,39.42,180.63,40.68,180.17,42.52z M110.28,15.61h-1.63v11.58h1.63V15.61z M166.12,39.46c-4.81,0-7.89,3.31-7.89,8.58
	c0,5.28,3.05,8.58,7.89,8.58c4.84,0,7.9-3.3,7.9-8.58C174.02,42.77,170.95,39.46,166.12,39.46z M170.54,48.04
	c0,3.63-1.65,5.75-4.41,5.75s-4.41-2.12-4.41-5.75c0-3.6,1.65-5.75,4.41-5.75S170.54,44.43,170.54,48.04L170.54,48.04z
	 M159.27,20.21c1.21,0,1.79,0.67,1.79,2v4.98h1.63V21.8c0.03-0.2,0.04-0.4,0.02-0.6c-0.11-1.49-1.4-2.61-2.89-2.5
	c-1.05-0.09-2.05,0.51-2.47,1.48h-0.12v-1.32h-1.57v8.33h1.63v-4.87c-0.01-0.1-0.01-0.19-0.01-0.29
	C157.34,20.97,158.23,20.16,159.27,20.21z M129.02,27.19V21.5c0-1.76-1.17-2.8-3.25-2.8c-1.88,0-3.22,0.92-3.38,2.35h1.58
	c0.18-0.59,0.81-0.93,1.73-0.93c1.12,0,1.69,0.5,1.69,1.38v0.72l-2.24,0.13c-1.97,0.12-3.08,0.99-3.08,2.49c0,0.08,0,0.17,0.01,0.25
	c0.14,1.38,1.37,2.39,2.75,2.24c1,0.05,1.95-0.45,2.49-1.31h0.13v1.17H129.02z M127.4,24.12c0,0.02,0,0.04-0.01,0.07
	c-0.11,1.08-1.07,1.87-2.14,1.76c-0.89,0-1.54-0.44-1.54-1.19c0-0.73,0.52-1.12,1.66-1.2l2.02-0.13V24.12z M120.36,22.27
	c-0.21-2.17-2.12-3.76-4.28-3.55c-2.16,0.21-3.74,2.13-3.53,4.3c-0.02,0.25-0.02,0.51,0,0.76c0.21,2.17,2.13,3.76,4.28,3.55
	c2.16-0.21,3.73-2.14,3.52-4.31C120.38,22.77,120.38,22.52,120.36,22.27z M116.45,25.89c-1.42,0-2.22-1.05-2.22-2.87
	c0-1.81,0.8-2.86,2.22-2.86c1.41,0,2.22,1.06,2.22,2.86C118.68,24.84,117.87,25.89,116.45,25.89z M139.22,43.44l-2.52-0.62
	c-2.94-0.73-4.15-1.69-4.15-3.31c0-2.04,1.88-3.44,4.64-3.44s4.64,1.38,4.84,3.68h3.45c-0.11-3.96-3.42-6.69-8.24-6.69
	c-4.87,0-8.31,2.72-8.31,6.69c0,3.2,1.95,5.17,6.14,6.19l2.96,0.72c2.96,0.73,4.21,1.8,4.21,3.58c0,2.05-2.07,3.55-4.95,3.55
	c-3.01,0-5.2-1.5-5.46-3.77l-3.5,0c0.22,4.16,3.64,6.78,8.7,6.78c5.41,0,8.81-2.69,8.81-6.99
	C145.85,46.45,143.91,44.56,139.22,43.44z M153.23,35.7h-3.43v3.96h-2.42v2.72h2.42v9.6c0,3.25,1.31,4.52,4.68,4.52
	c0.64,0.01,1.27-0.04,1.9-0.16v-2.71c-0.37,0.05-0.75,0.07-1.12,0.08c-1.39,0-2.03-0.67-2.03-2.1v-9.23h3.17v-2.72h-3.17V35.7z
	 M112.72,39.49c-2.17-0.07-4.21,1.07-5.3,2.96h-0.06v-2.79h-3.31v22.29h3.42v-8.3h0.08c1.04,1.91,3.08,3.04,5.24,2.93
	c4.18,0,6.95-3.34,6.95-8.55C119.73,42.85,116.94,39.49,112.72,39.49z M111.82,53.68c-2.61,0-4.37-2.26-4.37-5.63
	c0-3.34,1.76-5.62,4.37-5.62c2.66,0,4.4,2.23,4.4,5.62C116.22,51.47,114.48,53.68,111.82,53.68z M89.58,27.19l1.7-6.14h0.13
	l1.71,6.14h1.69l2.27-8.33h-1.63l-1.48,6.36h-0.13l-1.7-6.36h-1.57l-1.7,6.36h-0.12l-1.48-6.36h-1.66l2.28,8.33H89.58z M84.44,22.27
	c-0.21-2.17-2.12-3.76-4.28-3.55c-2.16,0.21-3.74,2.13-3.53,4.3c-0.02,0.25-0.02,0.51,0,0.77c0.21,2.17,2.13,3.76,4.28,3.55
	c2.16-0.21,3.73-2.14,3.52-4.31C84.46,22.77,84.46,22.52,84.44,22.27z M80.54,25.89c-1.42,0-2.22-1.05-2.22-2.87
	c0-1.81,0.8-2.86,2.22-2.86c1.41,0,2.22,1.06,2.22,2.86h0C82.76,24.84,81.95,25.89,80.54,25.89z M177.58,22.33
	c-0.01-0.11-0.01-0.22,0-0.33c0.09-1.07,1.02-1.87,2.09-1.78c1.15,0,1.77,0.67,1.77,2v4.97h1.64v-5.38
	c0.02-0.17,0.03-0.34,0.02-0.51c-0.08-1.51-1.37-2.67-2.87-2.59c-1.07-0.09-2.08,0.51-2.52,1.49h-0.13v-4.59h-1.62l0,11.58h1.63
	V22.33z M94.4,39.49c-2.17-0.07-4.21,1.07-5.3,2.96h-0.06v-2.79h-3.31v22.29h3.42v-8.3h0.08c1.04,1.91,3.08,3.04,5.24,2.93
	c4.18,0,6.95-3.34,6.95-8.55C101.41,42.85,98.62,39.49,94.4,39.49z M97.9,48.04c0,3.42-1.74,5.63-4.4,5.63
	c-2.61,0-4.37-2.26-4.37-5.63c0-3.34,1.76-5.62,4.37-5.62C96.16,42.42,97.9,44.65,97.9,48.04L97.9,48.04z M104.41,27.19h1.63V21.8
	c0.03-0.2,0.04-0.4,0.02-0.6c-0.11-1.49-1.4-2.61-2.89-2.5c-1.05-0.09-2.05,0.51-2.47,1.48h-0.12v-1.32h-1.57l0,8.33h1.63v-4.87
	c-0.01-0.1-0.01-0.19-0.01-0.29c0.05-1.05,0.94-1.87,1.99-1.82c1.21,0,1.79,0.67,1.79,2V27.19z M149.95,27.33
	c2.16-0.21,3.73-2.14,3.52-4.31c0.02-0.25,0.02-0.5,0-0.75c-0.21-2.17-2.12-3.76-4.28-3.55c-2.16,0.21-3.74,2.13-3.53,4.3
	c-0.02,0.25-0.02,0.51,0,0.77C145.87,25.96,147.79,27.54,149.95,27.33z M147.35,23.02c0-1.81,0.8-2.86,2.22-2.86
	c1.41,0,2.22,1.06,2.22,2.86c0,1.81-0.81,2.87-2.22,2.87C148.15,25.89,147.35,24.84,147.35,23.02z"/>
</svg>